<mxfile host="app.diagrams.net" modified="2024-01-31T02:19:53.876Z" agent="Mozilla/5.0 (X11; Linux x86_64) AppleWebKit/537.36 (KHTML, like Gecko) Chrome/116.0.0.0 Safari/537.36" version="23.0.2" etag="W1v-Pgb5L6yLKLcmCVcS" type="github">
  <diagram name="Page-1" id="AjBofoy4KEMJVnvA0i5T">
    <mxGraphModel>
      <root>
        <mxCell id="0" />
        <mxCell id="1" parent="0" />
      </root>
    </mxGraphModel>
  </diagram>
</mxfile>
